<?xml version="1.0" encoding="iso-8859-1"?>
<!-- Uploaded to: SVG Repo, www.svgrepo.com, Generator: SVG Repo Mixer Tools -->
<svg fill="#000000" version="1.1" id="Capa_1" xmlns="http://www.w3.org/2000/svg" xmlns:xlink="http://www.w3.org/1999/xlink" 
	 viewBox="0 0 60 60" xml:space="preserve">
<g>
	<g>
		<path d="M40,13c0,0.6,0.4,1,1,1h11v8h2v-9l0,0c0-0.1,0-0.2-0.1-0.3v-0.1c-0.1-0.1-0.1-0.2-0.2-0.3l-12-12
			c-0.1-0.1-0.2-0.1-0.3-0.2h-0.1C41.2,0.1,41.1,0,41,0l0,0H3C2.4,0,2,0.4,2,1v59h2V2h36L40,13L40,13z M50.6,12H42V3.4L50.6,12z"/>
		<path d="M43,35v-8c0-5.5-4.5-10-10-10s-10,4.5-10,10v8c0,5.2,4,9.4,9,9.9V60h2V44.9C39,44.4,43,40.2,43,35z M25,35v-8
			c0-4.4,3.6-8,8-8s8,3.6,8,8v8c0,4.1-3.1,7.4-7,7.9v-3.4l3.6-2.7l-1.2-1.6L34,37v-6.5l3.6-2.7l-1.2-1.6L34,28v-4h-2v4l-2.4-1.8
			l-1.2,1.6l3.6,2.7V37l-2.4-1.8l-1.2,1.6l3.6,2.7v3.4C28.1,42.4,25,39.1,25,35z"/>
		<path d="M48,27v2c4.4,0,8,3.6,8,8v8c0,4.1-3.1,7.4-7,7.9v-3.4l3.6-2.7l-1.2-1.6L49,47v-6.5l3.6-2.7l-1.2-1.6L49,38v-4h-2v4
			l-2.4-1.8l-1.2,1.6l3.6,2.7V47l-2.4-1.8l-1.2,1.6l3.6,2.7v3.4c-3.9-0.5-7-3.9-7-7.9h-2c0,5.2,4,9.4,9,9.9V60h2v-5.1
			c5-0.5,9-4.8,9-9.9v-8C58,31.5,53.5,27,48,27z"/>
		<path d="M19,52.9v-3.4l3.6-2.7l-1.2-1.6L19,47v-6.5l3.6-2.7l-1.2-1.6L19,38v-4h-2v4l-2.4-1.8l-1.2,1.6l3.6,2.7V47l-2.4-1.8
			l-1.2,1.6l3.6,2.7v3.4c-3.9-0.5-7-3.9-7-7.9v-8c0-4.4,3.6-8,8-8v-2c-5.5,0-10,4.5-10,10v8c0,5.2,4,9.4,9,9.9V60h2v-5.1
			c5-0.5,9-4.8,9-9.9h-2C26,49.1,22.9,52.4,19,52.9z"/>
		<rect x="9" y="6" width="9" height="2"/>
		<rect x="9" y="11" width="22" height="2"/>
	</g>
</g>
</svg>